<?xml version="1.0" encoding="UTF-8" standalone="no"?>
<svg
   xmlns:dc="http://purl.org/dc/elements/1.1/"
   xmlns:cc="http://creativecommons.org/ns#"
   xmlns:rdf="http://www.w3.org/1999/02/22-rdf-syntax-ns#"
   xmlns:svg="http://www.w3.org/2000/svg"
   xmlns="http://www.w3.org/2000/svg"
   xmlns:sodipodi="http://sodipodi.sourceforge.net/DTD/sodipodi-0.dtd"
   xmlns:inkscape="http://www.inkscape.org/namespaces/inkscape"
   enable-background="new 0 0 512 512"
   height="512px"
   id="Layer_1"
   version="1.1"
   viewBox="0 0 512 512"
   width="512px"
   xml:space="preserve"
   inkscape:version="0.48.3.1 r9886"
   sodipodi:docname="sf-circle.svg"
   inkscape:export-filename="sf-circle.png"
   inkscape:export-xdpi="22.5"
   inkscape:export-ydpi="22.5"><metadata
     id="metadata12"><rdf:RDF><cc:Work
         rdf:about=""><dc:format>image/svg+xml</dc:format><dc:type
           rdf:resource="http://purl.org/dc/dcmitype/StillImage" /><dc:title></dc:title></cc:Work></rdf:RDF></metadata><defs
     id="defs10" /><sodipodi:namedview
     pagecolor="#ffffff"
     bordercolor="#666666"
     borderopacity="1"
     objecttolerance="10"
     gridtolerance="10"
     guidetolerance="10"
     inkscape:pageopacity="0"
     inkscape:pageshadow="2"
     inkscape:window-width="1855"
     inkscape:window-height="1176"
     id="namedview8"
     showgrid="false"
     inkscape:zoom="0.23046875"
     inkscape:cx="-1258.7326"
     inkscape:cy="242.77519"
     inkscape:window-x="65"
     inkscape:window-y="24"
     inkscape:window-maximized="1"
     inkscape:current-layer="Layer_1" /><path
     style="fill:#344c8a"
     inkscape:connector-curvature="0"
     id="path6"
     d="m 254.5,16.5 c -131.996,0 -239,107.004 -239,239 0,131.996 107.004,239 239,239 131.996,0 239,-107.004 239,-239 0,-131.996 -107.004,-239 -239,-239 z M 412.892,413.892 C 370.584,456.2 314.333,479.5 254.5,479.5 194.667,479.5 138.416,456.2 96.108,413.892 53.8,371.584 30.5,315.333 30.5,255.5 30.5,195.667 53.8,139.416 96.108,97.108 138.416,54.8 194.667,31.5 254.5,31.5 c 59.833,0 116.084,23.3 158.392,65.608 42.308,42.308 65.608,98.559 65.608,158.392 0,59.833 -23.3,116.084 -65.608,158.392 z" /><g
     id="g2995"
     transform="translate(9.476531,7.6175273)"><path
   d="m 352.73729,202.14407 v -26.998 c 0,-12.187 2.946,-18.002 21.864,-18.002 h 23.136 v -45 h -39.007 c -48.535,0 -63.993,21.553 -63.993,59.744 v 30.256 h -33 v 46 h 33 v 136 h 58 v -136 h 40.216 l 5.385,-46 h -45.601 z"
   id="path4"
   inkscape:connector-curvature="0"
   style="fill:#344c8a" /><text
   sodipodi:linespacing="125%"
   id="text2991"
   y="381.37238"
   x="89.023773"
   style="font-size:332.64639282px;font-style:normal;font-variant:normal;font-weight:900;font-stretch:normal;text-align:start;line-height:125%;letter-spacing:0px;word-spacing:0px;writing-mode:lr-tb;text-anchor:start;fill:#344c8a;fill-opacity:1;stroke:none;font-family:Roboto Black;-inkscape-font-specification:'Roboto Black, Heavy'"
   xml:space="preserve"><tspan
     y="381.37238"
     x="89.023773"
     id="tspan2993"
     sodipodi:role="line">s</tspan></text>

</g></svg>